<svg width="10" height="9" viewBox="0 0 10 9" fill="none" xmlns="http://www.w3.org/2000/svg">
<path d="M9.20047 0.306647C8.94047 0.0466473 8.52047 0.0466473 8.26047 0.306647L5.00047 3.55998L1.74047 0.29998C1.48047 0.0399805 1.06047 0.0399805 0.800469 0.29998C0.540469 0.55998 0.540469 0.979981 0.800469 1.23998L4.06047 4.49998L0.800469 7.75998C0.540469 8.01998 0.540469 8.43998 0.800469 8.69998C1.06047 8.95998 1.48047 8.95998 1.74047 8.69998L5.00047 5.43998L8.26047 8.69998C8.52047 8.95998 8.94047 8.95998 9.20047 8.69998C9.46047 8.43998 9.46047 8.01998 9.20047 7.75998L5.94047 4.49998L9.20047 1.23998C9.4538 0.986647 9.4538 0.559981 9.20047 0.306647Z" fill="#EA3C12"/>
</svg>
